<svg width="38" height="38" viewBox="0 0 38 38" fill="none" xmlns="http://www.w3.org/2000/svg">
<path d="M26 6.5C26 10.0899 23.0899 13 19.5 13C15.9101 13 13 10.0899 13 6.5C13 2.91015 15.9101 0 19.5 0C23.0899 0 26 2.91015 26 6.5Z" fill="#7DD3FC"/>
<path d="M35 10.5C35 14.0899 32.0899 17 28.5 17C24.9101 17 22 14.0899 22 10.5C22 6.91015 24.9101 4 28.5 4C32.0899 4 35 6.91015 35 10.5Z" fill="white"/>
<path d="M34 27.5C34 31.0899 31.0899 34 27.5 34C23.9101 34 21 31.0899 21 27.5C21 23.9101 23.9101 21 27.5 21C31.0899 21 34 23.9101 34 27.5Z" fill="white"/>
<path d="M18 27.5C18 31.0899 15.0899 34 11.5 34C7.91015 34 5 31.0899 5 27.5C5 23.9101 7.91015 21 11.5 21C15.0899 21 18 23.9101 18 27.5Z" fill="white"/>
<path d="M17 10.5C17 14.0899 14.0899 17 10.5 17C6.91015 17 4 14.0899 4 10.5C4 6.91015 6.91015 4 10.5 4C14.0899 4 17 6.91015 17 10.5Z" fill="white"/>
<path d="M26 31C26 34.5899 23.0899 37.5 19.5 37.5C15.9101 37.5 13 34.5899 13 31C13 27.4101 15.9101 24.5 19.5 24.5C23.0899 24.5 26 27.4101 26 31Z" fill="#7DD3FC"/>
<path d="M37.5 19.3261C37.5 22.9159 34.5899 25.8261 31 25.8261C27.4101 25.8261 24.5 22.9159 24.5 19.3261C24.5 15.7362 27.4101 12.8261 31 12.8261C34.5899 12.8261 37.5 15.7362 37.5 19.3261Z" fill="#7DD3FC"/>
<path d="M13 18.5C13 22.0899 10.0899 25 6.5 25C2.91015 25 0 22.0899 0 18.5C0 14.9101 2.91015 12 6.5 12C10.0899 12 13 14.9101 13 18.5Z" fill="#7DD3FC"/>
</svg>
